<mxfile host="app.diagrams.net" modified="2023-05-01T22:59:40.685Z" agent="Mozilla/5.0 (Windows NT 10.0; Win64; x64) AppleWebKit/537.36 (KHTML, like Gecko) Chrome/112.0.0.0 Safari/537.36 Edg/112.0.1722.64" etag="BT2TWeOVD5_0aE61McfT" version="21.2.3" type="device">
  <diagram name="Страница 1" id="agckuzptGgNDzWJZTM2m">
    <mxGraphModel dx="5607" dy="3796" grid="1" gridSize="10" guides="1" tooltips="1" connect="1" arrows="1" fold="1" page="1" pageScale="1" pageWidth="827" pageHeight="1169" math="0" shadow="0">
      <root>
        <mxCell id="0" />
        <mxCell id="1" parent="0" />
        <mxCell id="od9hriKUXcRxosaeJMS2-41" value="" style="edgeStyle=orthogonalEdgeStyle;rounded=0;orthogonalLoop=1;jettySize=auto;html=1;" parent="1" source="od9hriKUXcRxosaeJMS2-1" target="od9hriKUXcRxosaeJMS2-2" edge="1">
          <mxGeometry relative="1" as="geometry" />
        </mxCell>
        <mxCell id="od9hriKUXcRxosaeJMS2-1" value="Выполнение шейкерной сортировки массива" style="rounded=1;whiteSpace=wrap;html=1;arcSize=50;" parent="1" vertex="1">
          <mxGeometry x="-65.44000000000005" y="-990" width="167.5" height="80" as="geometry" />
        </mxCell>
        <mxCell id="od9hriKUXcRxosaeJMS2-42" value="" style="edgeStyle=orthogonalEdgeStyle;rounded=0;orthogonalLoop=1;jettySize=auto;html=1;" parent="1" source="od9hriKUXcRxosaeJMS2-2" target="od9hriKUXcRxosaeJMS2-6" edge="1">
          <mxGeometry relative="1" as="geometry" />
        </mxCell>
        <mxCell id="od9hriKUXcRxosaeJMS2-2" value="Задать переменную right&lt;br&gt;в которой хранится &lt;br&gt;индекс крайнего правого элемента массива до которого будет выполняться цикл&lt;br&gt;(right = arr.length-1)" style="shape=parallelogram;perimeter=parallelogramPerimeter;whiteSpace=wrap;html=1;fixedSize=1;" parent="1" vertex="1">
          <mxGeometry x="-129.30000000000004" y="-880" width="297.72" height="90" as="geometry" />
        </mxCell>
        <mxCell id="od9hriKUXcRxosaeJMS2-44" value="" style="edgeStyle=orthogonalEdgeStyle;rounded=0;orthogonalLoop=1;jettySize=auto;html=1;entryX=0.5;entryY=0;entryDx=0;entryDy=0;" parent="1" source="od9hriKUXcRxosaeJMS2-6" target="oAg98JDKDWZVZLa2JEX6-4" edge="1">
          <mxGeometry relative="1" as="geometry">
            <mxPoint x="19.544705882352673" y="-340" as="targetPoint" />
          </mxGeometry>
        </mxCell>
        <mxCell id="od9hriKUXcRxosaeJMS2-6" value="Задать переменную left&lt;br style=&quot;border-color: var(--border-color);&quot;&gt;в которой хранится&lt;br style=&quot;border-color: var(--border-color);&quot;&gt;индекс крайнего левого элемента массива от которого будет выполняться цикл&lt;br style=&quot;border-color: var(--border-color);&quot;&gt;(left = 0)" style="shape=parallelogram;perimeter=parallelogramPerimeter;whiteSpace=wrap;html=1;fixedSize=1;" parent="1" vertex="1">
          <mxGeometry x="-126.80000000000004" y="-760" width="295.22" height="90" as="geometry" />
        </mxCell>
        <mxCell id="od9hriKUXcRxosaeJMS2-47" value="Сортировка массива закончена" style="rounded=1;whiteSpace=wrap;html=1;arcSize=50;" parent="1" vertex="1">
          <mxGeometry x="-60.5" y="914" width="187" height="100" as="geometry" />
        </mxCell>
        <mxCell id="oAg98JDKDWZVZLa2JEX6-22" value="" style="edgeStyle=orthogonalEdgeStyle;rounded=0;orthogonalLoop=1;jettySize=auto;html=1;" edge="1" parent="1" source="od9hriKUXcRxosaeJMS2-52" target="od9hriKUXcRxosaeJMS2-53">
          <mxGeometry relative="1" as="geometry" />
        </mxCell>
        <mxCell id="od9hriKUXcRxosaeJMS2-52" value="Создать счетчик&amp;nbsp;&lt;br style=&quot;border-color: var(--border-color);&quot;&gt;индексов элементов массива которые нужно проверить,&lt;br&gt;&amp;nbsp;равный left (i = left)" style="shape=parallelogram;perimeter=parallelogramPerimeter;whiteSpace=wrap;html=1;fixedSize=1;" parent="1" vertex="1">
          <mxGeometry x="-356.94000000000005" y="-293" width="200" height="76" as="geometry" />
        </mxCell>
        <mxCell id="od9hriKUXcRxosaeJMS2-68" value="" style="edgeStyle=orthogonalEdgeStyle;rounded=0;orthogonalLoop=1;jettySize=auto;html=1;exitX=1;exitY=0.5;exitDx=0;exitDy=0;entryX=0.5;entryY=1;entryDx=0;entryDy=0;" parent="1" source="od9hriKUXcRxosaeJMS2-53" target="oAg98JDKDWZVZLa2JEX6-53" edge="1">
          <mxGeometry relative="1" as="geometry">
            <mxPoint x="22.060000000000002" y="17" as="targetPoint" />
            <Array as="points">
              <mxPoint x="-25" y="-113" />
            </Array>
          </mxGeometry>
        </mxCell>
        <mxCell id="oAg98JDKDWZVZLa2JEX6-23" value="Если i&amp;gt;= right" style="edgeLabel;html=1;align=center;verticalAlign=middle;resizable=0;points=[];" vertex="1" connectable="0" parent="od9hriKUXcRxosaeJMS2-68">
          <mxGeometry x="-0.2804" relative="1" as="geometry">
            <mxPoint x="-1" as="offset" />
          </mxGeometry>
        </mxCell>
        <mxCell id="oAg98JDKDWZVZLa2JEX6-21" value="Если&amp;nbsp;i&amp;lt;right" style="edgeStyle=orthogonalEdgeStyle;rounded=0;orthogonalLoop=1;jettySize=auto;html=1;" edge="1" parent="1" source="od9hriKUXcRxosaeJMS2-53" target="od9hriKUXcRxosaeJMS2-55">
          <mxGeometry x="-0.3576" y="-3" relative="1" as="geometry">
            <mxPoint as="offset" />
          </mxGeometry>
        </mxCell>
        <mxCell id="od9hriKUXcRxosaeJMS2-53" value="Выполнена проверка &lt;br&gt;всех&amp;nbsp;элементов текущей итерации массива&lt;br&gt;" style="rhombus;whiteSpace=wrap;html=1;" parent="1" vertex="1">
          <mxGeometry x="-375.96999999999997" y="-173" width="238.06" height="120" as="geometry" />
        </mxCell>
        <mxCell id="od9hriKUXcRxosaeJMS2-63" value="Если&amp;nbsp;arr[i] &amp;gt; arr[i+1]" style="edgeStyle=orthogonalEdgeStyle;rounded=0;orthogonalLoop=1;jettySize=auto;html=1;" parent="1" source="od9hriKUXcRxosaeJMS2-55" target="od9hriKUXcRxosaeJMS2-62" edge="1">
          <mxGeometry relative="1" as="geometry" />
        </mxCell>
        <mxCell id="oAg98JDKDWZVZLa2JEX6-15" value="иначе" style="edgeStyle=orthogonalEdgeStyle;rounded=0;orthogonalLoop=1;jettySize=auto;html=1;entryX=1;entryY=0.5;entryDx=0;entryDy=0;" edge="1" parent="1" source="od9hriKUXcRxosaeJMS2-55" target="oAg98JDKDWZVZLa2JEX6-1">
          <mxGeometry relative="1" as="geometry">
            <mxPoint x="-447.94" y="62" as="targetPoint" />
          </mxGeometry>
        </mxCell>
        <mxCell id="od9hriKUXcRxosaeJMS2-55" value="Сравнить значение &lt;br&gt;текущего элемента массива&amp;nbsp; и следующего элемента массива&amp;nbsp;&lt;br&gt;" style="rhombus;whiteSpace=wrap;html=1;" parent="1" vertex="1">
          <mxGeometry x="-377.94" y="-13" width="241.03" height="150" as="geometry" />
        </mxCell>
        <mxCell id="oAg98JDKDWZVZLa2JEX6-10" value="" style="edgeStyle=orthogonalEdgeStyle;rounded=0;orthogonalLoop=1;jettySize=auto;html=1;" edge="1" parent="1" source="od9hriKUXcRxosaeJMS2-62" target="oAg98JDKDWZVZLa2JEX6-9">
          <mxGeometry relative="1" as="geometry" />
        </mxCell>
        <mxCell id="od9hriKUXcRxosaeJMS2-62" value="Сохраняем текущее значение arr[i] в переменную currVal" style="rounded=0;whiteSpace=wrap;html=1;" parent="1" vertex="1">
          <mxGeometry x="-352.42" y="187" width="190" height="80" as="geometry" />
        </mxCell>
        <mxCell id="oAg98JDKDWZVZLa2JEX6-16" style="edgeStyle=orthogonalEdgeStyle;rounded=0;orthogonalLoop=1;jettySize=auto;html=1;exitX=0;exitY=0.5;exitDx=0;exitDy=0;entryX=0.467;entryY=1;entryDx=0;entryDy=0;entryPerimeter=0;" edge="1" parent="1" source="oAg98JDKDWZVZLa2JEX6-17" target="oAg98JDKDWZVZLa2JEX6-1">
          <mxGeometry relative="1" as="geometry">
            <mxPoint x="-522.94" y="97" as="targetPoint" />
          </mxGeometry>
        </mxCell>
        <mxCell id="oAg98JDKDWZVZLa2JEX6-20" value="" style="edgeStyle=orthogonalEdgeStyle;rounded=0;orthogonalLoop=1;jettySize=auto;html=1;" edge="1" parent="1" source="oAg98JDKDWZVZLa2JEX6-1" target="od9hriKUXcRxosaeJMS2-53">
          <mxGeometry relative="1" as="geometry">
            <Array as="points">
              <mxPoint x="-522.94" y="-113" />
            </Array>
          </mxGeometry>
        </mxCell>
        <mxCell id="oAg98JDKDWZVZLa2JEX6-1" value="Увеличить счетчик количества раз проверки массива на 1" style="rounded=0;whiteSpace=wrap;html=1;" vertex="1" parent="1">
          <mxGeometry x="-597.94" y="27" width="150" height="70" as="geometry" />
        </mxCell>
        <mxCell id="oAg98JDKDWZVZLa2JEX6-6" value="" style="edgeStyle=orthogonalEdgeStyle;rounded=0;orthogonalLoop=1;jettySize=auto;html=1;" edge="1" parent="1" source="oAg98JDKDWZVZLa2JEX6-4" target="oAg98JDKDWZVZLa2JEX6-5">
          <mxGeometry relative="1" as="geometry" />
        </mxCell>
        <mxCell id="oAg98JDKDWZVZLa2JEX6-4" value="Создать переменную в которой будет храниться текущее значение элемента&lt;br&gt;(cuuVal)" style="shape=parallelogram;perimeter=parallelogramPerimeter;whiteSpace=wrap;html=1;fixedSize=1;" vertex="1" parent="1">
          <mxGeometry x="-165.34" y="-630" width="372.29" height="60" as="geometry" />
        </mxCell>
        <mxCell id="oAg98JDKDWZVZLa2JEX6-8" value="" style="edgeStyle=orthogonalEdgeStyle;rounded=0;orthogonalLoop=1;jettySize=auto;html=1;" edge="1" parent="1" source="oAg98JDKDWZVZLa2JEX6-5" target="oAg98JDKDWZVZLa2JEX6-7">
          <mxGeometry relative="1" as="geometry" />
        </mxCell>
        <mxCell id="oAg98JDKDWZVZLa2JEX6-5" value="Создать переменную в которой будет храниться информация о том, были ли перемещения элементов&lt;br&gt;(haveChanges)" style="shape=parallelogram;perimeter=parallelogramPerimeter;whiteSpace=wrap;html=1;fixedSize=1;" vertex="1" parent="1">
          <mxGeometry x="-149.19000000000003" y="-530" width="340" height="60" as="geometry" />
        </mxCell>
        <mxCell id="oAg98JDKDWZVZLa2JEX6-60" style="edgeStyle=orthogonalEdgeStyle;rounded=0;orthogonalLoop=1;jettySize=auto;html=1;exitX=0.5;exitY=1;exitDx=0;exitDy=0;entryX=0.5;entryY=0;entryDx=0;entryDy=0;" edge="1" parent="1" source="oAg98JDKDWZVZLa2JEX6-7" target="od9hriKUXcRxosaeJMS2-52">
          <mxGeometry relative="1" as="geometry" />
        </mxCell>
        <mxCell id="oAg98JDKDWZVZLa2JEX6-7" value="Присвоить переменной haveChanges значение равное 0&lt;br&gt;(нет изменений)" style="rounded=0;whiteSpace=wrap;html=1;" vertex="1" parent="1">
          <mxGeometry x="-62.940000000000055" y="-440" width="169" height="80" as="geometry" />
        </mxCell>
        <mxCell id="oAg98JDKDWZVZLa2JEX6-12" value="" style="edgeStyle=orthogonalEdgeStyle;rounded=0;orthogonalLoop=1;jettySize=auto;html=1;" edge="1" parent="1" source="oAg98JDKDWZVZLa2JEX6-9" target="oAg98JDKDWZVZLa2JEX6-11">
          <mxGeometry relative="1" as="geometry" />
        </mxCell>
        <mxCell id="oAg98JDKDWZVZLa2JEX6-9" value="Записываем в текущую переменную arr[i] значение переменной arr[i+1]" style="rounded=0;whiteSpace=wrap;html=1;" vertex="1" parent="1">
          <mxGeometry x="-342.43" y="316" width="170" height="70" as="geometry" />
        </mxCell>
        <mxCell id="oAg98JDKDWZVZLa2JEX6-48" value="" style="edgeStyle=orthogonalEdgeStyle;rounded=0;orthogonalLoop=1;jettySize=auto;html=1;" edge="1" parent="1" source="oAg98JDKDWZVZLa2JEX6-11" target="oAg98JDKDWZVZLa2JEX6-17">
          <mxGeometry relative="1" as="geometry" />
        </mxCell>
        <mxCell id="oAg98JDKDWZVZLa2JEX6-11" value="Записываем в следующую переменную arr[i+1] значение переменной currVal" style="rounded=0;whiteSpace=wrap;html=1;" vertex="1" parent="1">
          <mxGeometry x="-342.43" y="437" width="170" height="70" as="geometry" />
        </mxCell>
        <mxCell id="oAg98JDKDWZVZLa2JEX6-17" value="Присваиваем переменной haveChanges значение 1" style="rounded=0;whiteSpace=wrap;html=1;" vertex="1" parent="1">
          <mxGeometry x="-317.43" y="547" width="120" height="60" as="geometry" />
        </mxCell>
        <mxCell id="oAg98JDKDWZVZLa2JEX6-24" value="" style="edgeStyle=orthogonalEdgeStyle;rounded=0;orthogonalLoop=1;jettySize=auto;html=1;" edge="1" parent="1" source="oAg98JDKDWZVZLa2JEX6-25" target="oAg98JDKDWZVZLa2JEX6-29">
          <mxGeometry relative="1" as="geometry" />
        </mxCell>
        <mxCell id="oAg98JDKDWZVZLa2JEX6-25" value="Создать счетчик&amp;nbsp;&lt;br style=&quot;border-color: var(--border-color);&quot;&gt;индексов элементов массива которые нужно проверить,&lt;br&gt;&amp;nbsp;равный right (i = left)" style="shape=parallelogram;perimeter=parallelogramPerimeter;whiteSpace=wrap;html=1;fixedSize=1;" vertex="1" parent="1">
          <mxGeometry x="206.95000000000005" y="-297" width="200" height="76" as="geometry" />
        </mxCell>
        <mxCell id="oAg98JDKDWZVZLa2JEX6-26" value="" style="edgeStyle=orthogonalEdgeStyle;rounded=0;orthogonalLoop=1;jettySize=auto;html=1;entryX=0.5;entryY=0;entryDx=0;entryDy=0;" edge="1" parent="1" source="oAg98JDKDWZVZLa2JEX6-29" target="oAg98JDKDWZVZLa2JEX6-55">
          <mxGeometry relative="1" as="geometry">
            <mxPoint x="40" y="90" as="targetPoint" />
            <Array as="points">
              <mxPoint x="33" y="-120" />
            </Array>
          </mxGeometry>
        </mxCell>
        <mxCell id="oAg98JDKDWZVZLa2JEX6-27" value="Если i&amp;lt;=left" style="edgeLabel;html=1;align=center;verticalAlign=middle;resizable=0;points=[];" vertex="1" connectable="0" parent="oAg98JDKDWZVZLa2JEX6-26">
          <mxGeometry x="-0.2804" relative="1" as="geometry">
            <mxPoint x="-1" as="offset" />
          </mxGeometry>
        </mxCell>
        <mxCell id="oAg98JDKDWZVZLa2JEX6-28" value="i&amp;gt;left" style="edgeStyle=orthogonalEdgeStyle;rounded=0;orthogonalLoop=1;jettySize=auto;html=1;" edge="1" parent="1" source="oAg98JDKDWZVZLa2JEX6-29" target="oAg98JDKDWZVZLa2JEX6-32">
          <mxGeometry x="-0.0137" y="-2" relative="1" as="geometry">
            <mxPoint x="2" y="2" as="offset" />
          </mxGeometry>
        </mxCell>
        <mxCell id="oAg98JDKDWZVZLa2JEX6-29" value="Выполнена проверка &lt;br&gt;всех&amp;nbsp;элементов текущей итерации массива&lt;br&gt;" style="rhombus;whiteSpace=wrap;html=1;" vertex="1" parent="1">
          <mxGeometry x="188.97000000000003" y="-180" width="238.06" height="120" as="geometry" />
        </mxCell>
        <mxCell id="oAg98JDKDWZVZLa2JEX6-30" value="Если&amp;nbsp;arr[i] &amp;lt; arr[i-1]" style="edgeStyle=orthogonalEdgeStyle;rounded=0;orthogonalLoop=1;jettySize=auto;html=1;" edge="1" parent="1" source="oAg98JDKDWZVZLa2JEX6-32" target="oAg98JDKDWZVZLa2JEX6-34">
          <mxGeometry relative="1" as="geometry" />
        </mxCell>
        <mxCell id="oAg98JDKDWZVZLa2JEX6-31" value="иначе" style="edgeStyle=orthogonalEdgeStyle;rounded=0;orthogonalLoop=1;jettySize=auto;html=1;entryX=0;entryY=0.5;entryDx=0;entryDy=0;" edge="1" parent="1" source="oAg98JDKDWZVZLa2JEX6-32" target="oAg98JDKDWZVZLa2JEX6-39">
          <mxGeometry relative="1" as="geometry">
            <mxPoint x="607" y="55" as="targetPoint" />
          </mxGeometry>
        </mxCell>
        <mxCell id="oAg98JDKDWZVZLa2JEX6-32" value="Сравнить значение &lt;br&gt;текущего элемента массива&amp;nbsp; и предыдущего элемента массива&amp;nbsp;" style="rhombus;whiteSpace=wrap;html=1;" vertex="1" parent="1">
          <mxGeometry x="187" y="-20" width="241.03" height="150" as="geometry" />
        </mxCell>
        <mxCell id="oAg98JDKDWZVZLa2JEX6-33" value="" style="edgeStyle=orthogonalEdgeStyle;rounded=0;orthogonalLoop=1;jettySize=auto;html=1;" edge="1" parent="1" source="oAg98JDKDWZVZLa2JEX6-34" target="oAg98JDKDWZVZLa2JEX6-41">
          <mxGeometry relative="1" as="geometry" />
        </mxCell>
        <mxCell id="oAg98JDKDWZVZLa2JEX6-34" value="Сохраняем текущее значение arr[i] в переменную currVal" style="rounded=0;whiteSpace=wrap;html=1;" vertex="1" parent="1">
          <mxGeometry x="212.51999999999998" y="180" width="190" height="80" as="geometry" />
        </mxCell>
        <mxCell id="oAg98JDKDWZVZLa2JEX6-35" style="edgeStyle=orthogonalEdgeStyle;rounded=0;orthogonalLoop=1;jettySize=auto;html=1;exitX=1;exitY=0.5;exitDx=0;exitDy=0;entryX=0.5;entryY=1;entryDx=0;entryDy=0;" edge="1" parent="1" source="oAg98JDKDWZVZLa2JEX6-46" target="oAg98JDKDWZVZLa2JEX6-39">
          <mxGeometry relative="1" as="geometry">
            <mxPoint x="682" y="90" as="targetPoint" />
          </mxGeometry>
        </mxCell>
        <mxCell id="oAg98JDKDWZVZLa2JEX6-38" value="" style="edgeStyle=orthogonalEdgeStyle;rounded=0;orthogonalLoop=1;jettySize=auto;html=1;exitX=0.5;exitY=0;exitDx=0;exitDy=0;" edge="1" parent="1" source="oAg98JDKDWZVZLa2JEX6-39" target="oAg98JDKDWZVZLa2JEX6-29">
          <mxGeometry relative="1" as="geometry">
            <Array as="points">
              <mxPoint x="575" y="-120" />
            </Array>
          </mxGeometry>
        </mxCell>
        <mxCell id="oAg98JDKDWZVZLa2JEX6-39" value="Увеличить счетчик количества раз проверки массива на 1" style="rounded=0;whiteSpace=wrap;html=1;" vertex="1" parent="1">
          <mxGeometry x="500" y="20" width="150" height="70" as="geometry" />
        </mxCell>
        <mxCell id="oAg98JDKDWZVZLa2JEX6-40" value="" style="edgeStyle=orthogonalEdgeStyle;rounded=0;orthogonalLoop=1;jettySize=auto;html=1;" edge="1" parent="1" source="oAg98JDKDWZVZLa2JEX6-41" target="oAg98JDKDWZVZLa2JEX6-43">
          <mxGeometry relative="1" as="geometry" />
        </mxCell>
        <mxCell id="oAg98JDKDWZVZLa2JEX6-41" value="Записываем в текущую переменную arr[i] значение переменной arr[i-1]" style="rounded=0;whiteSpace=wrap;html=1;" vertex="1" parent="1">
          <mxGeometry x="222.51" y="309" width="170" height="70" as="geometry" />
        </mxCell>
        <mxCell id="oAg98JDKDWZVZLa2JEX6-49" value="" style="edgeStyle=orthogonalEdgeStyle;rounded=0;orthogonalLoop=1;jettySize=auto;html=1;" edge="1" parent="1" source="oAg98JDKDWZVZLa2JEX6-43" target="oAg98JDKDWZVZLa2JEX6-46">
          <mxGeometry relative="1" as="geometry" />
        </mxCell>
        <mxCell id="oAg98JDKDWZVZLa2JEX6-43" value="Записываем в предыдущую переменную arr[i-1] значение переменной currVal" style="rounded=0;whiteSpace=wrap;html=1;" vertex="1" parent="1">
          <mxGeometry x="222.51" y="430" width="170" height="70" as="geometry" />
        </mxCell>
        <mxCell id="oAg98JDKDWZVZLa2JEX6-46" value="Присваиваем переменной haveChanges значение 1" style="rounded=0;whiteSpace=wrap;html=1;" vertex="1" parent="1">
          <mxGeometry x="248" y="550" width="120" height="60" as="geometry" />
        </mxCell>
        <mxCell id="oAg98JDKDWZVZLa2JEX6-54" style="edgeStyle=orthogonalEdgeStyle;rounded=0;orthogonalLoop=1;jettySize=auto;html=1;exitX=1;exitY=0.5;exitDx=0;exitDy=0;entryX=0;entryY=0.5;entryDx=0;entryDy=0;" edge="1" parent="1" source="oAg98JDKDWZVZLa2JEX6-53" target="oAg98JDKDWZVZLa2JEX6-25">
          <mxGeometry relative="1" as="geometry">
            <mxPoint x="49.0600000000004" y="-265" as="sourcePoint" />
          </mxGeometry>
        </mxCell>
        <mxCell id="oAg98JDKDWZVZLa2JEX6-53" value="Уменьшаем значение переменной right на 1" style="rounded=0;whiteSpace=wrap;html=1;" vertex="1" parent="1">
          <mxGeometry x="-100" y="-294" width="150" height="70" as="geometry" />
        </mxCell>
        <mxCell id="oAg98JDKDWZVZLa2JEX6-58" style="edgeStyle=orthogonalEdgeStyle;rounded=0;orthogonalLoop=1;jettySize=auto;html=1;exitX=0.5;exitY=1;exitDx=0;exitDy=0;entryX=0.5;entryY=0;entryDx=0;entryDy=0;" edge="1" parent="1" source="oAg98JDKDWZVZLa2JEX6-55" target="oAg98JDKDWZVZLa2JEX6-56">
          <mxGeometry relative="1" as="geometry">
            <mxPoint x="40" y="160" as="sourcePoint" />
            <mxPoint x="40" y="700" as="targetPoint" />
          </mxGeometry>
        </mxCell>
        <mxCell id="oAg98JDKDWZVZLa2JEX6-55" value="Увеличиваем значение переменной left на 1" style="rounded=0;whiteSpace=wrap;html=1;" vertex="1" parent="1">
          <mxGeometry x="-42" y="90" width="150" height="70" as="geometry" />
        </mxCell>
        <mxCell id="oAg98JDKDWZVZLa2JEX6-57" value="left = right || haveChanges == 0" style="edgeStyle=orthogonalEdgeStyle;rounded=0;orthogonalLoop=1;jettySize=auto;html=1;" edge="1" parent="1" source="oAg98JDKDWZVZLa2JEX6-56" target="od9hriKUXcRxosaeJMS2-47">
          <mxGeometry relative="1" as="geometry" />
        </mxCell>
        <mxCell id="oAg98JDKDWZVZLa2JEX6-59" style="edgeStyle=orthogonalEdgeStyle;rounded=0;orthogonalLoop=1;jettySize=auto;html=1;exitX=0;exitY=0.5;exitDx=0;exitDy=0;entryX=0.003;entryY=0.624;entryDx=0;entryDy=0;entryPerimeter=0;" edge="1" parent="1" source="oAg98JDKDWZVZLa2JEX6-56" target="oAg98JDKDWZVZLa2JEX6-7">
          <mxGeometry relative="1" as="geometry">
            <Array as="points">
              <mxPoint x="-650" y="725" />
              <mxPoint x="-650" y="-390" />
            </Array>
          </mxGeometry>
        </mxCell>
        <mxCell id="oAg98JDKDWZVZLa2JEX6-62" value="((left &amp;lt;right) &amp;amp;&amp;amp; haveChanges == 1" style="edgeLabel;html=1;align=center;verticalAlign=middle;resizable=0;points=[];" vertex="1" connectable="0" parent="oAg98JDKDWZVZLa2JEX6-59">
          <mxGeometry x="-0.0733" y="-1" relative="1" as="geometry">
            <mxPoint as="offset" />
          </mxGeometry>
        </mxCell>
        <mxCell id="oAg98JDKDWZVZLa2JEX6-56" value="Проверяем выполнение условий:&lt;br&gt;1) мы проверили весь массив?&lt;br&gt;2) были ли перемещения элеметов&amp;nbsp;" style="rhombus;whiteSpace=wrap;html=1;" vertex="1" parent="1">
          <mxGeometry x="-120" y="640" width="306" height="170" as="geometry" />
        </mxCell>
      </root>
    </mxGraphModel>
  </diagram>
</mxfile>
